<svg width="32" height="32" viewBox="0 0 32 32" fill="none" xmlns="http://www.w3.org/2000/svg">
<path d="M3.9993 6.75622C3.6743 6.81872 3.11805 7.08122 2.9868 7.23122C2.89305 7.33747 3.2743 7.61246 8.56805 11.2812C11.693 13.4437 14.3805 15.2937 14.543 15.3875C15.2305 15.775 16.318 15.8562 17.0555 15.575C17.493 15.4062 17.1993 15.6 23.5868 11.1375L29.0805 7.29372L28.8993 7.14372C28.7993 7.06247 28.5618 6.93747 28.3743 6.85622L28.0305 6.71872L16.1555 6.71247C9.51805 6.70622 4.15555 6.72497 3.9993 6.75622Z" fill="#141414"/>
<path d="M23.9996 12.0687C20.8558 14.2687 18.1433 16.1499 17.9683 16.2437C17.3308 16.6062 16.8558 16.7187 15.9996 16.7187C15.1558 16.7124 14.8246 16.6437 14.1871 16.3249C13.9058 16.1874 9.53081 13.1812 3.15581 8.74369C2.42456 8.23119 2.26831 8.14994 2.21206 8.22494C2.00581 8.49369 1.99331 8.97494 2.01206 16.2187L2.03081 23.4062L2.16831 23.6999C2.24331 23.8687 2.33081 23.9999 2.35581 23.9999C2.38081 23.9999 4.19331 22.2124 6.37456 20.0312C10.4933 15.9124 10.4308 15.9687 10.7808 16.0999C10.9246 16.1562 11.0746 16.4812 11.0308 16.6437C11.0058 16.7187 9.18706 18.5874 6.98706 20.7874L2.98081 24.7999L3.25581 24.9562C3.86206 25.2999 3.08081 25.2812 15.9996 25.2812C28.9183 25.2812 28.1371 25.2999 28.7433 24.9562L29.0121 24.7999L25.0058 20.7874C21.3371 17.1187 20.9996 16.7624 20.9996 16.5749C20.9996 16.2999 21.2371 16.0624 21.5121 16.0624C21.6996 16.0624 22.0496 16.3999 25.6996 20.0437L29.6808 24.0249L29.8246 23.7187L29.9683 23.4062L29.9871 16.2187C30.0058 8.96869 29.9996 8.61244 29.7871 8.20619C29.7246 8.07494 29.4621 8.24994 23.9996 12.0687Z" fill="#141414"/>
</svg>
