<svg width="32" height="32" viewBox="0 0 32 32" fill="none" xmlns="http://www.w3.org/2000/svg">
<path fill-rule="evenodd" clip-rule="evenodd" d="M16.0054 0C9.85189 0 4.875 5.008 4.875 11.2C4.875 17.872 11.9031 27.072 14.797 30.576C15.433 31.344 16.5938 31.344 17.2298 30.576C20.1078 27.072 27.1359 17.872 27.1359 11.2C27.1359 5.008 22.159 0 16.0054 0ZM16.0054 15.2C13.8111 15.2 12.0303 13.408 12.0303 11.2C12.0303 8.992 13.8111 7.2 16.0054 7.2C18.1997 7.2 19.9806 8.992 19.9806 11.2C19.9806 13.408 18.1997 15.2 16.0054 15.2Z" fill="#141414"/>
</svg>
