<svg width="32" height="32" viewBox="0 0 32 32" fill="none" xmlns="http://www.w3.org/2000/svg">
<path d="M11.0582 14.0968C11.7914 15.4727 12.6964 16.7492 13.7513 17.8953C14.9856 19.1914 16.433 20.2644 18.03 21.0674C18.0884 21.0935 18.1516 21.107 18.2156 21.107C18.2795 21.107 18.3427 21.0935 18.4011 21.0674C18.5972 20.9801 18.7732 20.8533 18.9184 20.6949C19.0848 20.516 19.2406 20.3276 19.385 20.1304C20.0766 19.2217 20.9256 18.0985 22.1288 18.6629L22.2019 18.6968L26.2107 21.0109H26.2444C26.4904 21.1886 26.6883 21.4252 26.8199 21.6993C26.9515 21.9734 27.0126 22.2761 26.9978 22.58C26.9778 23.2807 26.7846 23.9654 26.4356 24.5724C25.9917 25.3311 25.3151 25.9251 24.5071 26.2657C23.7493 26.5951 22.9484 26.8137 22.1288 26.9148C20.9112 27.0931 19.6691 26.9908 18.4967 26.6157C17.2113 26.1805 15.9853 25.5851 14.8477 24.8434L14.7521 24.7813C14.1562 24.4088 13.5152 24.0137 12.8855 23.5452C10.3736 21.6402 8.27013 19.2464 6.70079 16.5068C5.4245 14.1814 4.72169 11.6697 5.10402 9.27094C5.26232 7.99374 5.88747 6.82107 6.85822 5.98035C7.3479 5.59914 7.90848 5.3199 8.50707 5.15901C9.10566 4.99812 9.73022 4.95882 10.3441 5.04341C10.4276 5.05012 10.5082 5.0773 10.5788 5.12257C10.6494 5.16784 10.7078 5.22981 10.749 5.30304L13.3184 9.66603C13.4905 9.86313 13.6023 10.106 13.6402 10.3653C13.6781 10.6246 13.6405 10.8895 13.5321 11.1279C13.3115 11.5864 12.9715 11.9764 12.5481 12.2567C12.4132 12.3753 12.2501 12.4938 12.0759 12.618C11.5136 13.0356 10.8445 13.521 11.0694 14.0911L11.0582 14.0968Z" fill="#141414"/>
</svg>
