<svg width="32" height="32" viewBox="0 0 32 32" fill="none" xmlns="http://www.w3.org/2000/svg">
<g clip-path="url(#clip0_726_112)">
<path fill-rule="evenodd" clip-rule="evenodd" d="M15.9996 0C9.84604 0 4.86914 5.008 4.86914 11.2C4.86914 17.872 11.8972 27.072 14.7911 30.576C15.4272 31.344 16.5879 31.344 17.2239 30.576C20.1019 27.072 27.13 17.872 27.13 11.2C27.13 5.008 22.1531 0 15.9996 0ZM15.9996 15.2C13.8053 15.2 12.0244 13.408 12.0244 11.2C12.0244 8.992 13.8053 7.2 15.9996 7.2C18.1939 7.2 19.9747 8.992 19.9747 11.2C19.9747 13.408 18.1939 15.2 15.9996 15.2Z" fill="#141414"/>
</g>
<defs>
<clipPath id="clip0_726_112">
<rect width="32" height="32" fill="white"/>
</clipPath>
</defs>
</svg>
