<svg width="32" height="32" viewBox="0 0 32 32" fill="none" xmlns="http://www.w3.org/2000/svg">
<g clip-path="url(#clip0_1187_1073)">
<path fill-rule="evenodd" clip-rule="evenodd" d="M13.562 28.3789V20.2732H19.4315V28.3789C19.4315 29.2705 20.0918 30 20.8989 30H25.301C26.1081 30 26.7684 29.2705 26.7684 28.3789V17.0309H29.2629C29.9379 17.0309 30.2608 16.1069 29.7472 15.6205L17.4799 3.41339C16.9223 2.8622 16.0712 2.8622 15.5136 3.41339L3.2463 15.6205C2.74739 16.1069 3.05554 17.0309 3.73054 17.0309H6.22508V28.3789C6.22508 29.2705 6.8854 30 7.69246 30H12.0946C12.9017 30 13.562 29.2705 13.562 28.3789Z" fill="#1D1D1D"/>
</g>
<defs>
<clipPath id="clip0_1187_1073">
<rect width="32" height="32" fill="white"/>
</clipPath>
</defs>
</svg>
