<svg width="20" height="20" viewBox="0 0 20 20" fill="none" xmlns="http://www.w3.org/2000/svg">
<circle cx="10" cy="10" r="9.58415" stroke="#141414" stroke-width="0.831707"/>
<g clip-path="url(#clip0_829_890)">
<path d="M10 12.9168C10.345 12.9168 10.625 13.1968 10.625 13.5418C10.625 13.8868 10.345 14.1668 10 14.1668C9.655 14.1668 9.375 13.8868 9.375 13.5418C9.375 13.1968 9.655 12.9168 10 12.9168ZM10 5.8335C11.3808 5.8335 12.5 6.95266 12.5 8.3335C12.5 9.23558 12.1863 9.70433 11.3858 10.3847C10.5829 11.0668 10.4167 11.3739 10.4167 12.0835H9.58333C9.58333 11.0527 9.91125 10.5439 10.8463 9.74975C11.4783 9.21266 11.6667 8.931 11.6667 8.3335C11.6667 7.41266 10.9208 6.66683 10 6.66683C9.07917 6.66683 8.33333 7.41266 8.33333 8.3335V8.75016H7.5V8.3335C7.5 6.95266 8.61917 5.8335 10 5.8335Z" fill="#141414"/>
</g>
<defs>
<clipPath id="clip0_829_890">
<rect width="10" height="10" fill="white" transform="translate(5 5)"/>
</clipPath>
</defs>
</svg>
