<svg width="32" height="32" viewBox="0 0 32 32" fill="none" xmlns="http://www.w3.org/2000/svg">
<path d="M28.9615 6.85714H27.9231V5.89286C27.9231 4.25357 26.5731 3 24.8077 3H10.2692C8.50385 3 7.15385 4.25357 7.15385 5.89286V6.85714C4.86923 7.05 3 8.97857 3 11.1964C3 13.6071 5.07692 15.5357 7.67308 15.5357H15.4615C16.0846 15.5357 16.5 15.9214 16.5 16.5V18.4286H15.4615C14.9423 18.4286 14.5269 18.8143 14.4231 19.2964L13.6962 26.0464C13.5923 27.0107 13.9038 28.0714 14.6308 28.8429C15.3577 29.6143 16.5 30 17.5385 30C18.5769 30 19.7192 29.6143 20.4462 28.8429C21.1731 28.0714 21.4846 27.1071 21.3808 26.0464L20.6538 19.2964C20.55 18.8143 20.1346 18.4286 19.6154 18.4286H18.5769V16.5C18.5769 14.8607 17.2269 13.6071 15.4615 13.6071H7.67308C6.21923 13.6071 5.07692 12.5464 5.07692 11.1964C5.07692 10.0393 6.01154 9.075 7.15385 8.88214V9.75C7.15385 11.3893 8.50385 12.6429 10.2692 12.6429H24.8077C26.5731 12.6429 27.9231 11.3893 27.9231 9.75V8.78571H28.9615C29.5846 8.78571 30 8.4 30 7.82143C30 7.24286 29.5846 6.85714 28.9615 6.85714Z" fill="#141414"/>
</svg>
