<svg version="1.1" xmlns="http://www.w3.org/2000/svg" xmlns:xlink="http://www.w3.org/1999/xlink" width="24" height="24" viewBox="0,0,256,256"><defs><clipPath id="clip-1"><rect x="0" y="0" width="24" height="24" id="clip0_301_27" fill="none" fill-rule="nonzero"></rect></clipPath></defs><g fill="none" fill-rule="none" stroke="none" stroke-width="1" stroke-linecap="butt" stroke-linejoin="miter" stroke-miterlimit="10" stroke-dasharray="" stroke-dashoffset="0" font-family="none" font-weight="none" font-size="none" text-anchor="none" style="mix-blend-mode: normal"><g transform="scale(10.66667,10.66667)"><g clip-path="url(#clip-1)" id="6758899171556105723"><path d="M0,12c0,6.6274 5.3726,12 12,12c6.6274,0 12,-5.3726 12,-12c0,-6.6274 -5.3726,-12 -12,-12c-6.6274,0 -12,5.3726 -12,12zM9.8,17.5l0.2042,-3.0589l5.5642,-5.0216c0.2442,-0.21675 -0.0532,-0.32245 -0.3774,-0.12585l-6.86735,4.33255l-2.9663,-0.9259c-0.6406,-0.1961 -0.6452,-0.6363 0.1438,-0.9527l11.55905,-4.45715c0.5279,-0.2397 1.0374,0.1268 0.8359,0.9348l-1.9685,9.27635c-0.1375,0.6592 -0.5357,0.8168 -1.0876,0.5123l-2.9987,-2.2154l-1.4413,1.4015c-0.0046,0.0044 -0.009,0.0088 -0.0136,0.0132c-0.1611,0.1569 -0.2945,0.2868 -0.5864,0.2868z" id="Vector" fill="#000000" fill-rule="evenodd"></path></g></g></g></svg>