<svg width="32" height="32" viewBox="0 0 32 32" fill="none" xmlns="http://www.w3.org/2000/svg">
<path d="M30.6569 16.4687L28.2195 13.3855C28.101 13.248 27.9537 13.1375 27.7879 13.0618C27.6221 12.986 27.4417 12.9468 27.2591 12.9468C27.0765 12.9468 26.8961 12.986 26.7303 13.0618C26.5645 13.1375 26.4173 13.248 26.2988 13.3855L23.8613 16.4687C23.7628 16.5936 23.6901 16.7364 23.6474 16.8891C23.6047 17.0418 23.5927 17.2013 23.6123 17.3585C23.6318 17.5157 23.6824 17.6676 23.7612 17.8055C23.8401 17.9434 23.9456 18.0645 24.0717 18.162C24.1978 18.2595 24.3421 18.3315 24.4963 18.3738C24.6505 18.4161 24.8116 18.4279 24.9704 18.4086C25.1292 18.3892 25.2826 18.3391 25.4219 18.2611C25.5612 18.183 25.6835 18.0786 25.782 17.9537L25.8689 17.8406C25.4499 20.2445 24.2259 22.439 22.3941 24.0706C20.5622 25.7022 18.2291 26.6761 15.7703 26.8354C13.3115 26.9948 10.87 26.3303 8.83894 24.9491C6.80789 23.5678 5.30541 21.5501 4.57339 19.2207C3.84137 16.8913 3.9224 14.3859 4.80342 12.1076C5.68445 9.82939 7.31422 7.91095 9.43036 6.66114C11.5465 5.41132 14.0259 4.90286 16.4694 5.2176C18.9129 5.53235 21.1783 6.65198 22.901 8.39627C23.1313 8.60487 23.4336 8.71819 23.7458 8.71295C24.0579 8.70771 24.3562 8.5843 24.5792 8.36809C24.8023 8.15187 24.9333 7.85928 24.9452 7.55043C24.9571 7.24159 24.8491 6.93995 24.6433 6.70752C22.5132 4.55191 19.7058 3.17771 16.6825 2.81071C13.6591 2.44371 10.5996 3.10572 8.00654 4.68799C5.4135 6.27026 3.4412 8.67867 2.41368 11.5175C1.38616 14.3564 1.36454 17.4568 2.35238 20.3094C3.34021 23.1621 5.27873 25.5972 7.84946 27.2148C10.4202 28.8323 13.4702 29.5361 16.4984 29.2105C19.5266 28.8848 22.3528 27.5491 24.5128 25.4228C26.6728 23.2965 28.038 20.5061 28.3841 17.5101L28.7362 17.9628C28.9351 18.215 29.2271 18.3786 29.5478 18.4176C29.8686 18.4567 30.1919 18.368 30.4466 18.1711C30.7013 17.9741 30.8665 17.6851 30.906 17.3676C30.9454 17.05 30.8558 16.73 30.6569 16.4778V16.4687Z" fill="#141414"/>
<path d="M14.8228 7.59326C14.4882 7.59443 14.1676 7.71918 13.931 7.94032C13.6944 8.16146 13.5609 8.46105 13.5597 8.77379V15.8747C13.5583 15.9677 13.5711 16.0603 13.5977 16.1499C13.6167 16.2371 13.6503 16.321 13.6974 16.3984C13.73 16.4762 13.7766 16.5482 13.8351 16.6114C13.8351 16.6114 13.8636 16.6469 13.8731 16.6558C13.9262 16.7143 13.9868 16.7665 14.0535 16.8111L14.1058 16.8466L16.0907 18.2446L19.1298 20.3749C19.348 20.5303 19.6154 20.6131 19.8896 20.6101C20.1549 20.6092 20.4132 20.5305 20.6282 20.3852C20.8431 20.2398 21.0038 20.0351 21.0877 19.7999C21.1716 19.5647 21.1745 19.3108 21.0958 19.074C21.0172 18.8372 20.8611 18.6294 20.6494 18.4799L20.2458 18.1958L18.6217 17.0597L16.9407 15.8747L16.0907 15.2844V8.77379C16.0894 8.46029 15.9553 8.16002 15.7177 7.93876C15.48 7.71749 15.1583 7.59326 14.8228 7.59326Z" fill="#141414"/>
</svg>
