<svg width="24" height="24" viewBox="0 0 24 24" fill="none" xmlns="http://www.w3.org/2000/svg">
<g id="2769663821556105731" clip-path="url(#clip0_301_24)">
<path id="Vector" fill-rule="evenodd" clip-rule="evenodd" d="M0 12C0 18.6274 5.3726 24 12 24C18.6274 24 24 18.6274 24 12C24 5.3726 18.6274 0 12 0C5.3726 0 0 5.3726 0 12ZM19.531 11.5407C19.5295 15.4741 16.3298 18.6747 12.3955 18.6763H12.3926C11.1983 18.6758 10.0249 18.3762 8.98265 17.8078L5.2 18.8L6.2123 15.1024C5.58785 14.0203 5.2593 12.7928 5.2598 11.5351C5.2614 7.60085 8.4624 4.4 12.3954 4.4C14.3043 4.40083 16.0959 5.14395 17.4431 6.4927C18.7903 7.8414 19.5318 9.63415 19.531 11.5407Z" fill="white"/>
<path id="Vector_2" fill-rule="evenodd" clip-rule="evenodd" d="M6.91325 17.1048L9.15795 16.5159L9.3745 16.6445C10.2851 17.1848 11.3289 17.4707 12.3932 17.4712H12.3956C15.6645 17.4712 18.325 14.8106 18.3263 11.5403C18.3269 9.9556 17.7106 8.46555 16.5909 7.3445C15.4711 6.22345 13.982 5.60575 12.3979 5.6052C9.12645 5.6052 6.4659 8.26555 6.4646 11.5355C6.46415 12.6562 6.7777 13.7475 7.3714 14.6918L7.5124 14.9162L6.91325 17.1048ZM15.7462 13.077C15.8706 13.1371 15.9546 13.1777 15.9904 13.2375C16.035 13.3119 16.035 13.6689 15.8865 14.0854C15.7378 14.5019 15.0256 14.882 14.683 14.9331C14.3758 14.9791 13.9871 14.9982 13.56 14.8625C13.301 14.7803 12.969 14.6706 12.5436 14.4869C10.8721 13.7652 9.7425 12.1452 9.52905 11.839C9.5141 11.8175 9.5036 11.8025 9.4978 11.7948L9.49635 11.7928C9.402 11.6669 8.76975 10.8234 8.76975 9.9504C8.76975 9.12915 9.1732 8.69865 9.3589 8.5005C9.3716 8.48695 9.3833 8.47445 9.3938 8.463C9.5572 8.2845 9.7504 8.2399 9.86925 8.2399C9.9881 8.2399 10.1071 8.241 10.211 8.2462C10.2238 8.24685 10.2371 8.24675 10.2509 8.2467C10.3548 8.24605 10.4843 8.2453 10.6121 8.55225C10.6613 8.6704 10.7332 8.8455 10.8091 9.03015C10.9625 9.4037 11.132 9.8164 11.1618 9.8761C11.2064 9.96535 11.2361 10.0694 11.1767 10.1885C11.1678 10.2063 11.1595 10.2232 11.1516 10.2392C11.107 10.3304 11.0742 10.3974 10.9984 10.4859C10.9686 10.5207 10.9378 10.5582 10.907 10.5956C10.8457 10.6703 10.7844 10.745 10.731 10.7982C10.6417 10.8871 10.5488 10.9836 10.6528 11.1621C10.7568 11.3406 11.1146 11.9244 11.6447 12.3972C12.2144 12.9054 12.7096 13.1202 12.9606 13.2291C13.0096 13.2504 13.0493 13.2676 13.0785 13.2822C13.2567 13.3714 13.3607 13.3565 13.4647 13.2375C13.5687 13.1186 13.9104 12.7169 14.0293 12.5384C14.1481 12.36 14.267 12.3897 14.4304 12.4492C14.5939 12.5088 15.4704 12.94 15.6487 13.0293C15.6835 13.0467 15.7161 13.0624 15.7462 13.077Z" fill="white"/>
</g>
<defs>
<clipPath id="clip0_301_24">
<rect width="24" height="24" fill="white"/>
</clipPath>
</defs>
</svg>
