<svg version="1.1" xmlns="http://www.w3.org/2000/svg" xmlns:xlink="http://www.w3.org/1999/xlink" width="24" height="24" viewBox="0,0,256,256"><defs><clipPath id="clip-1"><rect x="0" y="0" width="24" height="24" id="clip0_301_24" fill="none" fill-rule="nonzero"></rect></clipPath></defs><g fill="none" fill-rule="none" stroke="none" stroke-width="1" stroke-linecap="butt" stroke-linejoin="miter" stroke-miterlimit="10" stroke-dasharray="" stroke-dashoffset="0" font-family="none" font-weight="none" font-size="none" text-anchor="none" style="mix-blend-mode: normal"><g transform="scale(10.66667,10.66667)"><g clip-path="url(#clip-1)" id="2769663821556105731"><path d="M0,12c0,6.6274 5.3726,12 12,12c6.6274,0 12,-5.3726 12,-12c0,-6.6274 -5.3726,-12 -12,-12c-6.6274,0 -12,5.3726 -12,12zM19.531,11.5407c-0.0015,3.9334 -3.2012,7.134 -7.1355,7.1356h-0.0029c-1.1943,-0.0005 -2.3677,-0.3001 -3.40995,-0.8685l-3.78265,0.9922l1.0123,-3.6976c-0.62445,-1.0821 -0.953,-2.3096 -0.9525,-3.5673c0.0016,-3.93425 3.2026,-7.1351 7.1356,-7.1351c1.9089,0.00083 3.7005,0.74395 5.0477,2.0927c1.3472,1.3487 2.0887,3.14145 2.0879,5.048z" id="Vector" fill="#000000" fill-rule="evenodd"></path><path d="M6.91325,17.1048l2.2447,-0.5889l0.21655,0.1286c0.9106,0.5403 1.9544,0.8262 3.0187,0.8267h0.0024c3.2689,0 5.9294,-2.6606 5.9307,-5.9309c0.0006,-1.5847 -0.6157,-3.07475 -1.7354,-4.1958c-1.1198,-1.12105 -2.6089,-1.73875 -4.193,-1.7393c-3.27145,0 -5.932,2.66035 -5.9333,5.9303c-0.00045,1.1207 0.3131,2.212 0.9068,3.1563l0.141,0.2244zM15.7462,13.077c0.1244,0.0601 0.2084,0.1007 0.2442,0.1605c0.0446,0.0744 0.0446,0.4314 -0.1039,0.8479c-0.1487,0.4165 -0.8609,0.7966 -1.2035,0.8477c-0.3072,0.046 -0.6959,0.0651 -1.123,-0.0706c-0.259,-0.0822 -0.591,-0.1919 -1.0164,-0.3756c-1.6715,-0.7217 -2.8011,-2.3417 -3.01455,-2.6479c-0.01495,-0.0215 -0.02545,-0.0365 -0.03125,-0.0442l-0.00145,-0.002c-0.09435,-0.1259 -0.7266,-0.9694 -0.7266,-1.8424c0,-0.82125 0.40345,-1.25175 0.58915,-1.4499c0.0127,-0.01355 0.0244,-0.02605 0.0349,-0.0375c0.1634,-0.1785 0.3566,-0.2231 0.47545,-0.2231c0.11885,0 0.23785,0.0011 0.34175,0.0063c0.0128,0.00065 0.0261,0.00055 0.0399,0.0005c0.1039,-0.00065 0.2334,-0.0014 0.3612,0.30555c0.0492,0.11815 0.1211,0.29325 0.197,0.4779c0.1534,0.37355 0.3229,0.78625 0.3527,0.84595c0.0446,0.08925 0.0743,0.1933 0.0149,0.3124c-0.0089,0.0178 -0.0172,0.0347 -0.0251,0.0507c-0.0446,0.0912 -0.0774,0.1582 -0.1532,0.2467c-0.0298,0.0348 -0.0606,0.0723 -0.0914,0.1097c-0.0613,0.0747 -0.1226,0.1494 -0.176,0.2026c-0.0893,0.0889 -0.1822,0.1854 -0.0782,0.3639c0.104,0.1785 0.4618,0.7623 0.9919,1.2351c0.5697,0.5082 1.0649,0.723 1.3159,0.8319c0.049,0.0213 0.0887,0.0385 0.1179,0.0531c0.1782,0.0892 0.2822,0.0743 0.3862,-0.0447c0.104,-0.1189 0.4457,-0.5206 0.5646,-0.6991c0.1188,-0.1784 0.2377,-0.1487 0.4011,-0.0892c0.1635,0.0596 1.04,0.4908 1.2183,0.5801c0.0348,0.0174 0.0674,0.0331 0.0975,0.0477z" id="Vector_2" fill="#000000" fill-rule="evenodd"></path></g></g></g></svg>